<?xml version="1.0" standalone="no"?>
<!DOCTYPE svg PUBLIC "-//W3C//DTD SVG 20010904//EN"
 "http://www.w3.org/TR/2001/REC-SVG-20010904/DTD/svg10.dtd">
<svg version="1.0" xmlns="http://www.w3.org/2000/svg"
 width="225.000000pt" height="225.000000pt" viewBox="0 0 225.000000 225.000000"
 preserveAspectRatio="xMidYMid meet">
<metadata>
Created by potrace 1.11, written by Peter Selinger 2001-2013
</metadata>
<g transform="translate(0.000000,225.000000) scale(0.100000,-0.100000)"
fill="#000000" stroke="none">
<path d="M1327 1973 c-8 -7 191 -213 206 -213 4 0 6 48 5 108 l-3 107 -101 3
c-55 1 -103 -1 -107 -5z"/>
<path d="M495 1830 c77 -77 143 -140 148 -140 4 0 6 62 5 138 l-3 137 -145 3
-145 2 140 -140z"/>
<path d="M1870 1865 c58 -58 106 -105 107 -105 2 0 3 47 3 105 l0 105 -107 0
-108 0 105 -105z"/>
<path d="M455 1350 c99 -99 183 -180 187 -180 5 0 8 81 8 180 l0 180 -187 0
-188 0 180 -180z"/>
<path d="M1395 1400 c71 -71 133 -130 138 -130 4 0 6 57 5 128 l-3 127 -135 3
-135 3 130 -131z"/>
<path d="M1770 1522 c0 -9 193 -202 203 -202 4 0 7 47 7 105 l0 105 -105 0
c-58 0 -105 -3 -105 -8z"/>
<path d="M290 1078 c0 -14 340 -358 353 -358 4 0 6 82 5 183 l-3 182 -177 3
c-140 2 -178 0 -178 -10z"/>
<path d="M737 1083 c-8 -7 331 -353 346 -353 4 0 6 80 5 178 l-3 177 -171 3
c-93 1 -173 -1 -177 -5z"/>
<path d="M1250 1083 c0 -11 273 -283 283 -283 4 0 6 64 5 143 l-3 142 -142 3
c-79 1 -143 -1 -143 -5z"/>
<path d="M1850 955 l125 -125 3 112 c1 61 0 118 -2 125 -4 10 -36 13 -128 13
l-123 0 125 -125z"/>
<path d="M276 642 c-8 -13 360 -376 373 -368 14 9 15 330 1 357 -10 18 -23 19
-190 19 -98 0 -181 -4 -184 -8z"/>
<path d="M730 638 c0 -14 340 -358 353 -358 4 0 6 82 5 183 l-3 182 -177 3
c-140 2 -178 0 -178 -10z"/>
<path d="M1345 460 c99 -99 183 -180 188 -180 4 0 6 80 5 178 l-3 177 -185 3
-185 2 180 -180z"/>
<path d="M1835 500 l140 -140 3 127 c1 70 0 133 -2 140 -4 10 -39 13 -143 13
l-138 0 140 -140z"/>
</g>
</svg>
